# xmcd
#
# Track frame offsets:
#	150
#	12395
#	25377
#	42715
#	52972
#	60012
#	76170
#	87757
#	98292
#	108440
#	122057
#	132680
#
# Disc length: 1906 seconds
#
# Revision: 1
# Processed by: cddbd v1.5.2PL0 Copyright (c) Steve Scherf et al.
# Submitted via: audiograbber 1.83.01
#
DISCID=8f07700c
DTITLE=Ray Price - A Christmas Gift For You
DYEAR=1990
DGENRE=Country
TTITLE0=Christmas Card
TTITLE1=Silver Bells
TTITLE2=Blue Christmas
TTITLE3=Jingle Bells
TTITLE4=Rudolph the Red-Nosed Reindeer
TTITLE5=White Christmas
TTITLE6=For Christmas
TTITLE7=Let It Snow, Let It Snow, Let It Snow
TTITLE8=With Christmas Near
TTITLE9=What A Merry Christmas
TTITLE10=I'll Be Home For Christmas
TTITLE11=Silent Night
EXTD=
EXTT0=
EXTT1=
EXTT2=
EXTT3=
EXTT4=
EXTT5=
EXTT6=
EXTT7=
EXTT8=
EXTT9=
EXTT10=
EXTT11=
PLAYORDER=
